<svg width="118" height="90" viewBox="0 0 118 90" fill="none" xmlns="http://www.w3.org/2000/svg">
<path d="M31.668 29.0859C31.2392 28.8441 30.5794 29.1895 30.5794 29.1895L30.4144 29.5348L30.2495 29.7766L30.5464 30.2255C30.6124 30.3291 30.4804 30.3637 30.4804 30.3637L30.2495 30.1219L30.0515 30.0874L29.8866 30.2946C29.8866 30.2946 29.5897 30.4327 29.4247 30.3982C29.2598 30.3637 29.1278 30.3982 29.1278 30.3982C29.1278 30.3982 29.1608 30.5363 29.0289 30.5363C28.8969 30.5363 28.666 30.5363 28.666 30.5363L28.468 30.6054C28.468 30.6054 28.3691 30.5709 28.0722 30.9508C27.7753 31.3306 27.5443 31.0198 27.5443 31.0198L27.3794 31.1925C27.3794 31.1925 26.6536 31.7796 26.6866 31.9177C26.7196 32.0559 26.5216 32.3667 26.5216 32.3667V32.643L26.2907 32.712C26.2907 32.712 26.1918 32.9192 26.2247 33.0228C26.2577 33.1264 26.1258 33.161 26.1588 33.23C26.1918 33.2991 26.1918 33.4718 26.1918 33.4718L25.8619 33.9207L25.5649 34.3352L25.433 34.7496C25.1031 34.7496 25.1031 34.7496 25.1031 34.7496C25.1031 34.7496 24.9711 34.7496 24.9052 34.9568C24.8392 35.164 24.7072 35.2676 24.7072 35.2676C24.7072 35.2676 24.4763 35.4748 24.4103 35.3712C24.3773 35.2676 24.4433 35.7511 24.3443 35.8201C24.2454 35.8892 24.0144 36.1655 24.0144 36.2691C24.0474 36.3727 24.1464 36.4072 24.0144 36.5454C23.8825 36.6835 23.0247 37.3397 23.0577 37.685C23.0907 38.0649 22.7938 38.5484 22.7938 38.5484L22.6619 39.1009L22.068 39.7571C22.068 39.7571 22.2 39.9988 22.068 40.137C21.9361 40.2751 21.8041 40.4133 21.8041 40.4133V40.6895H21.4412C21.4412 40.6895 21.0454 42.3472 20.7814 42.3472C20.5175 42.3472 20.6825 42.6925 20.6825 42.6925L20.3856 42.8998V43.1415L20.0887 43.4178C20.0887 43.4178 19.9567 43.5559 19.9567 43.9358C19.9897 44.3157 19.7918 44.6265 19.7918 44.6265V45.5244C19.7918 45.5244 19.4948 45.8007 19.6268 46.0079C19.7588 46.2151 19.5938 46.5604 19.5938 46.5604V47.6655L19 49.116V49.8067L19.8907 51.3953C19.8907 51.3953 20.3526 52.0169 20.2866 52.3277C20.2206 52.6385 20.6165 53.571 20.6165 53.571L21.4412 55.3322C21.4412 55.3322 24.5423 57.059 24.1464 58.5439C23.7505 59.9944 24.4763 60.5815 24.4763 60.5815H24.8392C24.8392 60.5815 25.268 60.9268 25.4 60.9959C25.532 61.065 25.532 60.2361 25.532 60.2361L25.9608 59.8908C25.9608 59.8908 26.0598 60.8923 25.9278 58.9238C25.7959 56.9554 26.9175 54.6415 26.9175 54.6415L29.2268 51.2917L29.9856 49.7721C29.9856 49.7721 30.3485 49.7031 30.3814 49.0469C30.4144 48.3908 30.9753 46.595 30.9753 46.595L31.9649 41.7601L32.1629 41.1039L31.899 40.4133L32.7237 39.2391L33.4495 38.2721C33.4495 38.2721 33.4495 38.3066 33.4495 37.6505C33.4495 36.9943 33.7464 36.6835 33.7464 36.6835L33.9443 36.0619C33.9443 36.0619 33.2186 33.9207 33.5814 33.1955C33.9773 32.4703 35 31.7105 35 31.7105V31.3652L34.4722 30.9162L34.2742 30.3982C34.2742 30.3982 33.4165 30.7781 32.7897 30.0529C32.1629 29.3276 31.668 29.0859 31.668 29.0859Z" stroke="white" stroke-miterlimit="10"/>
<circle cx="78" cy="43" r="2.95" stroke="white" stroke-width="0.1" stroke-dasharray="0.4 0.4"/>
<circle cx="54" cy="48" r="3" fill="#FC6221"/>
<path d="M48.0475 52.244C47.0035 52.892 45.8755 53.216 44.6635 53.216C42.9355 53.216 41.6275 52.532 40.7395 51.164C40.0555 50.12 39.7135 48.842 39.7135 47.33C39.7135 45.602 40.1695 44.168 41.0815 43.028C41.9575 41.936 43.0915 41.39 44.4835 41.39C45.6835 41.39 46.7095 41.732 47.5615 42.416L47.1295 42.974C46.3255 42.506 45.4915 42.272 44.6275 42.272C43.4275 42.272 42.4735 42.764 41.7655 43.748C41.1175 44.672 40.7935 45.89 40.7935 47.402C40.7935 49.01 41.2075 50.27 42.0355 51.182C42.7435 51.95 43.6315 52.334 44.6995 52.334C45.5755 52.334 46.3615 52.166 47.0575 51.83V47.978H45.0055V47.078H48.0475V52.244ZM54.2354 44.612C55.4714 44.612 56.4614 45.086 57.2054 46.034C57.8174 46.838 58.1234 47.804 58.1234 48.932C58.1234 50.228 57.7274 51.284 56.9354 52.1C56.2274 52.844 55.3274 53.216 54.2354 53.216C52.9874 53.216 51.9974 52.742 51.2654 51.794C50.6534 51.002 50.3474 50.048 50.3474 48.932C50.3474 47.624 50.7434 46.556 51.5354 45.728C52.2434 44.984 53.1434 44.612 54.2354 44.612ZM54.2354 45.368C53.2874 45.368 52.5374 45.758 51.9854 46.538C51.5294 47.186 51.3014 47.984 51.3014 48.932C51.3014 50 51.6014 50.87 52.2014 51.542C52.7414 52.154 53.4194 52.46 54.2354 52.46C55.1714 52.46 55.9154 52.07 56.4674 51.29C56.9354 50.642 57.1694 49.856 57.1694 48.932C57.1694 47.84 56.8754 46.958 56.2874 46.286C55.7474 45.674 55.0634 45.368 54.2354 45.368ZM62.5572 43.496H59.2632V41.606H68.4792V43.496H64.9332V53H62.5572V43.496ZM75.7524 53H73.9344L73.7544 52.226C72.9624 52.886 72.1584 53.216 71.3424 53.216C69.5304 53.216 68.6244 52.334 68.6244 50.57C68.6244 49.694 69.0024 49.01 69.7584 48.518C70.5264 48.014 71.6604 47.762 73.1604 47.762H73.5384V47.726C73.5384 47.21 73.4304 46.856 73.2144 46.664C72.9984 46.472 72.6084 46.376 72.0444 46.376C71.2524 46.376 70.5264 46.628 69.8664 47.132C69.6504 46.736 69.4464 46.346 69.2544 45.962C69.9384 45.434 70.5324 45.08 71.0364 44.9C71.5524 44.708 72.1644 44.612 72.8724 44.612C74.7924 44.612 75.7524 45.812 75.7524 48.212V53ZM73.4664 49.148H73.1964C72.5124 49.148 71.9604 49.268 71.5404 49.508C71.1204 49.748 70.9104 50.066 70.9104 50.462C70.9104 51.206 71.2344 51.578 71.8824 51.578C72.2784 51.578 72.6264 51.464 72.9264 51.236C73.2264 51.008 73.4064 50.72 73.4664 50.372V49.148ZM80.3956 44.828V53H78.1096V44.828H80.3956ZM77.8396 42.74C77.8396 42.356 77.9716 42.026 78.2356 41.75C78.5116 41.462 78.8356 41.318 79.2076 41.318C79.6036 41.318 79.9396 41.456 80.2156 41.732C80.5036 42.008 80.6476 42.344 80.6476 42.74C80.6476 43.16 80.5096 43.502 80.2336 43.766C79.9696 44.03 79.6276 44.162 79.2076 44.162C78.8116 44.162 78.4816 44.03 78.2176 43.766C77.9656 43.49 77.8396 43.148 77.8396 42.74ZM86.5867 53H84.5887L81.7807 44.828H84.0667L85.5607 50.246L86.7667 44.828H89.0707C89.2507 45.692 89.5507 47.078 89.9707 48.986L90.2407 50.246L91.7887 44.828H94.1287L93.7327 45.962L93.5167 46.52C92.4847 49.424 91.7107 51.584 91.1947 53H89.1787C89.0347 52.448 88.8547 51.734 88.6387 50.858C88.3027 49.49 88.0507 48.476 87.8827 47.816C87.7387 48.368 87.5407 49.166 87.2887 50.21C86.9767 51.494 86.7427 52.424 86.5867 53ZM102.032 53H100.214L100.034 52.226C99.2417 52.886 98.4377 53.216 97.6217 53.216C95.8097 53.216 94.9037 52.334 94.9037 50.57C94.9037 49.694 95.2817 49.01 96.0377 48.518C96.8057 48.014 97.9397 47.762 99.4397 47.762H99.8177V47.726C99.8177 47.21 99.7097 46.856 99.4937 46.664C99.2777 46.472 98.8877 46.376 98.3237 46.376C97.5317 46.376 96.8057 46.628 96.1457 47.132C95.9297 46.736 95.7257 46.346 95.5337 45.962C96.2177 45.434 96.8117 45.08 97.3157 44.9C97.8317 44.708 98.4437 44.612 99.1517 44.612C101.072 44.612 102.032 45.812 102.032 48.212V53ZM99.7457 49.148H99.4757C98.7917 49.148 98.2397 49.268 97.8197 49.508C97.3997 49.748 97.1897 50.066 97.1897 50.462C97.1897 51.206 97.5137 51.578 98.1617 51.578C98.5577 51.578 98.9057 51.464 99.2057 51.236C99.5057 51.008 99.6857 50.72 99.7457 50.372V49.148ZM106.675 45.62C106.915 45.344 107.275 45.11 107.755 44.918C108.235 44.714 108.691 44.612 109.123 44.612C110.155 44.612 110.899 44.894 111.355 45.458C111.823 46.022 112.057 46.934 112.057 48.194V53H109.771V48.284C109.771 47.108 109.249 46.52 108.205 46.52C107.941 46.52 107.659 46.58 107.359 46.7C107.059 46.808 106.855 46.934 106.747 47.078V53H104.479V44.828H106.405C106.465 45.14 106.525 45.404 106.585 45.62H106.675Z" fill="white"/>
</svg>
